<?xml version="1.0" encoding="UTF-8"?>
<svg width="413px" height="428px" viewBox="0 0 413 428" version="1.1" xmlns="http://www.w3.org/2000/svg" xmlns:xlink="http://www.w3.org/1999/xlink">
    <!-- Generator: Sketch 59 (86127) - https://sketch.com -->
    <title>bonsai</title>
    <desc>Created with Sketch.</desc>
    <g id="Page-1" stroke="none" stroke-width="1" fill="none" fill-rule="evenodd">
        <g id="bonsai" transform="translate(-259.000000, -162.000000)" fill-rule="nonzero" stroke="#000000">
            <g transform="translate(262.000000, 164.000000)">
                <path d="" id="Path-2" stroke-width="2.5"></path>
                <path d="M112.325368,422.854645 L102.314092,422.854645 C97.3435296,422.854645 93.3140924,418.825208 93.3140924,413.854645 L93.3140924,412.180273 C93.3140924,407.20971 97.3435296,403.180273 102.314092,403.180273 L107.325092,403.180273 L107.325092,403.180273 L107.325306,392.854645 C107.325403,391.197815 108.668538,389.854707 110.325368,389.854645 L118.325368,389.854645 C119.982223,389.854645 121.325368,391.197791 121.325368,392.854645 L121.325368,413.854645 C121.325368,418.825208 117.295931,422.854645 112.325368,422.854645 Z" id="Path" stroke-width="5" fill="#7B93FF" transform="translate(107.319730, 406.354645) scale(-1, -1) translate(-107.319730, -406.354645) "></path>
                <path d="M215.801646,422.854645 L205.79037,422.854645 C200.819807,422.854645 196.79037,418.825208 196.79037,413.854645 L196.79037,412.180273 C196.79037,407.20971 200.819807,403.180273 205.79037,403.180273 L210.80137,403.180273 L210.80137,403.180273 L210.801584,392.854645 C210.801681,391.197815 212.144816,389.854707 213.801646,389.854645 L221.801646,389.854645 C223.4585,389.854645 224.801646,391.197791 224.801646,392.854645 L224.801646,413.854645 C224.801646,418.825208 220.772209,422.854645 215.801646,422.854645 Z" id="Path-Copy" stroke-width="5" fill="#7B93FF" transform="translate(210.796008, 406.354645) scale(1, -1) translate(-210.796008, -406.354645) "></path>
                <path d="M91.6338743,165.186066 C84.6493323,163.940452 77.2435057,161.267309 66.0568126,162.304351 C60.1405072,162.852811 59.1940041,169.915475 55.6658113,170.35575 C51.4847444,170.976863 48.137917,171.394506 45.625329,171.608677 C33.6629268,172.628345 29.6259013,182.275509 36.0413069,188.946539 C39.4899856,192.532632 42.3367718,189.072896 51.1474704,192.857696 C56.0754914,194.97462 55.6658113,198.599049 60.1405072,199.55011 C73.2948122,202.345951 73.0767756,197.144029 80.246589,196.423465 C92.9741746,195.144346 95.6550164,207.562786 112.320555,204.808815 C122.545241,203.119192 118.934172,197.825461 126.795035,190.15639 C131.593618,185.474886 142.347338,183.610682 130.78539,173.580697 C108.725693,154.443922 131.86999,176.503261 118.209801,170.626324 C113.936454,168.787828 110.680571,165.121123 106.619004,162.852811 C105.642506,162.307455 104.35061,161.897572 103.308741,162.304351" id="Path-7" stroke-width="5" fill="#50D9A2" stroke-linecap="round"></path>
                <path d="M232.939474,312.457555 C232.939474,312.457555 242.16772,293.825275 228.613319,272.96327 C215.058917,252.101264 205.087515,238.996965 215.847648,222.766442 C226.607781,206.535919 240.623782,206.162575 249.104668,206.162575 C257.585554,206.162575 280.805382,206.162575 291.458696,206.162575 C302.11201,206.162575 307.122893,200.204627 310.024922,192.912025 C311.959608,188.050289 311.959608,181.513407 310.024922,173.301376 L294.708011,173.301376 C292.963715,178.879152 289.640397,181.66804 284.738058,181.66804 C277.384548,181.66804 243.742914,182.662247 234.89205,183.771324 C226.041186,184.880401 223.774945,184.988133 215.847648,190.300506 C210.562783,193.842087 205.691493,199.129444 201.23378,206.162575 C197.668284,200.389929 193.830645,196.363767 189.720863,194.084088 C183.55619,190.664571 176.249843,190.300506 170.355946,190.300506 C164.462049,190.300506 150.864284,190.300506 137.793095,190.300506 C124.721905,190.300506 114.747369,184.115609 114.747369,176.850397 C114.747369,175.917831 115.640313,176.850397 128.378103,176.850397 C141.115894,176.850397 174.983715,171.254964 185.808255,163.65724 C196.632795,156.059517 205.165081,152.10792 208.485562,145.259118 C211.806044,138.410315 213.292536,134.245243 213.292536,112.539302 C213.292536,98.0686745 206.912023,94.9370857 194.150998,103.144536 C194.435995,114.609931 194.435995,123.029291 194.150998,128.402615 C193.723502,136.462602 188.240824,142.023864 179.463805,147.607013 C170.686785,153.190162 163.002569,155.247765 154.853929,157.853963 C146.705289,160.46016 131.737517,161.897841 124.721905,161.897841 C117.706294,161.897841 108.877505,159.111133 111.108795,149.827622 C113.340085,140.544111 122.511444,105.928373 121.783842,99.9893474 C121.298774,96.0299967 116.154885,97.0817261 106.352174,103.144536 C105.55956,107.07751 104.002354,112.001906 101.680555,117.917722 C98.1978561,126.791447 93.300758,142.408383 88.46031,155.577135 C83.6198619,168.745888 83.3042763,184.919761 85.9259616,192.912025 C88.5476469,200.904289 94.1774886,208.809242 101.680555,212.38861 C109.183621,215.967977 114.750877,217.831289 128.378103,220.453768 C142.00533,223.076248 148.197724,223.076248 156.879594,222.766442 C161.766626,222.592051 166.168784,223.357475 166.168784,231.17722 C166.168784,236.390383 163.072387,239.022011 156.879594,239.072104 L144.916198,238.996965 C137.698241,238.373542 132.156245,239.838104 128.290209,243.390651 C124.424173,246.943197 122.255384,253.09085 121.783842,261.83361 L121.783842,275.479444 L103.605729,275.479444 C97.2764413,275.420943 92.2279683,277.417787 88.46031,281.469975 C82.8088225,287.548258 82.1048042,292.276598 82.1048042,296.379503 C82.1048042,299.114773 82.1048042,304.474124 82.1048042,312.457555 C179.777147,312.830277 230.055371,312.830277 232.939474,312.457555 Z" id="Path-3" stroke-width="5" fill="#FFE176"></path>
                <path d="" id="Path-2" stroke-width="2.5"></path>
                <path d="M58.1499296,312.737096 L259.915662,312.737096 L259.915662,345.737096 C259.915662,375.560473 235.739038,399.737096 205.915662,399.737096 L112.14993,399.737096 C82.3265531,399.737096 58.1499296,375.560473 58.1499296,345.737096 L58.1499296,312.737096 L58.1499296,312.737096 Z" id="Rectangle" stroke-width="5" fill="#7B93FF"></path>
                <path d="M77.9980319,34.8021951 C81.9028914,12.3393254 98.5574499,-2.55920955 123.148511,1.03600628 C140.267925,3.53886645 143.484013,21.6145881 161.819779,23.5731866 C190.755392,26.6640446 258.736041,-13.9027577 262.506353,42.450587 L135.957601,80.7930298 L26.9042163,71.2930298 L77.9980319,34.8021951 Z" id="Path-13" stroke-width="5" fill="#50D9A2" stroke-linecap="round"></path>
                <path d="M240.206219,38.2155027 C247.952319,31.1130472 255.197744,27.3158361 261.942494,26.8238693 C272.05962,26.085919 282.451909,27.5618195 291.386467,31.2247195 C295.388724,32.8655246 299.076905,35.3521642 302.319064,38.2155027 C305.175074,40.7378103 307.547734,43.8518468 309.433326,47.1629453 C319.838236,65.4339671 293.476326,67.7896491 297.156713,80.0367231 C299.946634,89.3206301 313.226572,89.0198336 315.460027,99.2423801 C317.211701,107.259813 313.502238,115.640625 306.1374,119.00844 C274.965842,133.26266 247.476371,100.835822 217.636554,114.962144 C210.919117,118.142213 205.417236,123.773323 198.411901,126.255678 C176.379695,134.062835 166.094149,119.043005 148.755356,114.691441 C131.416563,110.339877 136.471215,121.247771 118.729145,114.691441 C89.8438394,104.017286 81.8406907,136.746237 51.8524114,132.56258 C40.4728297,130.975018 22.0986966,124.980545 24.1803264,110.339877 C24.7179594,106.558558 36.7834481,102.819867 29.2653429,98.4302715 C25.1379648,96.0204195 13.5035448,96.908253 6.80361451,93.1628838 C0.777906836,89.794416 -0.659535093,81.9570821 0.752029391,76.918317 C3.73309977,66.2769943 7.53870345,63.9166551 14.8536073,63.0489301 C31.9954249,61.0154947 35.6475966,65.8036336 41.2531725,71.2507524" id="Path-4" stroke-width="5" fill="#50D9A2" stroke-linecap="round"></path>
                <circle id="Oval" stroke-width="5" fill="#FF6F6F" cx="104.325368" cy="64.7531184" r="6.53991133"></circle>
                <circle id="Oval-Copy-3" stroke-width="5" fill="#FFD916" cx="258.36528" cy="80.7930298" r="6.53991133"></circle>
                <path d="M291.057543,146.795583 C261.072433,140.000098 267.030103,142.546818 256.698521,154.3479 C252.74443,158.864397 241.262331,161.623303 244.029758,172.194505 C247.845297,186.769353 262.193734,171.043264 273.524424,177.481369 C277.838121,179.932415 281.649711,185.976027 285.843643,188.615031 C296.944568,195.600217 327.349081,197.445303 336.79591,184.766806 C350.517694,166.350936 309.345131,167.281921 312.145877,160.097039" id="Path-5" stroke-width="5" fill="#50D9A2" stroke-linecap="round"></path>
                <path d="M278.320238,151.282911 C299.324366,130.041714 311.475936,143.084088 328.952557,143.084088 C347.031423,143.084088 350.633177,134.923359 368.683113,140.506579 C379.468906,143.842848 381.621157,157.012243 388.787577,159.069316 C395.953996,161.12639 403.903932,166.059699 406.258736,172.772135 C409.439057,181.837734 404.502071,184.80226 403.176376,185.822179 C395.344184,191.847857 389.826319,188.883331 380.310416,188.883331 C354.049061,188.883331 337.291792,211.118239 321.900508,185.822179" id="Path-6" stroke-width="5" fill="#50D9A2" stroke-linecap="round"></path>
                <path d="M33.0106795,79.7868158 C5.31843226,37.7569375 65.2992835,19.5131016 90.435803,41.5402092" id="Path-12" stroke-width="5" fill="#50D9A2" stroke-linecap="round"></path>
                <path d="M325.08281,163.65724 C352.634169,173.355319 329.423503,170.724 352.789536,163.843653" id="Path-10" stroke-width="5" stroke-linecap="round"></path>
                <circle id="Oval-Copy-4" stroke-width="5" fill="#FFD916" cx="64.689841" cy="187.544177" r="6.53991133"></circle>
                <circle id="Oval-Copy" stroke-width="5" fill="#FF6F6F" cx="303.896113" cy="157.117329" r="5.5"></circle>
                <rect id="Rectangle" stroke-width="5" fill="#7B93FF" x="46.3253684" y="304.737096" width="221" height="22" rx="8"></rect>
            </g>
        </g>
    </g>
</svg>