<svg height="157" width="96" xmlns="http://www.w3.org/2000/svg"><g fill="none" stroke="#7f42c3" stroke-linecap="round" stroke-opacity=".5" stroke-width="2"><path d="M-57 3l6.113 5.94a3 3 0 004.211-.029l3.784-3.78a3 3 0 014.253.013l3.681 3.723a3.004 3.004 0 004.244.025l3.862-3.816a3 3 0 014.21-.007l3.937 3.863a3 3 0 004.209-.006l3.868-3.819a3.006 3.006 0 014.244.027l3.653 3.695a3 3 0 004.279-.012l3.541-3.623a3 3 0 014.29 0l3.67 3.75a3 3 0 004.15.134l4.043-3.634a3 3 0 014.01.001l4.035 3.627a3 3 0 004.155-.138l3.669-3.769a3 3 0 014.258-.042l3.857 3.81a3 3 0 004.202.013l3.968-3.867a3 3 0 014.227.039l3.692 3.733a3 3 0 004.258.008l3.729-3.742a3 3 0 014.234-.016l3.851 3.808a3 3 0 004.225-.006l3.777-3.756a3 3 0 014.273.044l3.499 3.624a3 3 0 004.268.05l3.81-3.768a3 3 0 014.231.013l5.89 5.89M-57 16l6.113 5.94a3 3 0 004.211-.029l3.784-3.78a3 3 0 014.253.013l3.681 3.723a3.004 3.004 0 004.244.025l3.862-3.816a3 3 0 014.21-.007l3.937 3.863a3 3 0 004.209-.006l3.868-3.819a3.006 3.006 0 014.244.027l3.653 3.695a3 3 0 004.279-.012l3.541-3.623a3 3 0 014.29 0l3.67 3.75a3 3 0 004.15.134l4.043-3.634a3 3 0 014.01.001l4.035 3.627a3 3 0 004.155-.138l3.669-3.769a3 3 0 014.258-.042l3.857 3.81a3 3 0 004.202.013l3.968-3.867a3 3 0 014.227.039l3.692 3.733a3 3 0 004.258.008l3.729-3.742a3 3 0 014.234-.016l3.851 3.808a3 3 0 004.225-.006l3.777-3.756a3 3 0 014.273.044l3.499 3.624a3 3 0 004.268.05l3.81-3.768a3 3 0 014.231.013l5.89 5.89M-57 29l6.113 5.94a3 3 0 004.211-.029l3.784-3.78a3 3 0 014.253.013l3.681 3.723a3.004 3.004 0 004.244.025l3.862-3.816a3 3 0 014.21-.007l3.937 3.863a3 3 0 004.209-.006l3.868-3.819a3.006 3.006 0 014.244.027l3.653 3.695a3 3 0 004.279-.012l3.541-3.623a3 3 0 014.29 0l3.67 3.75a3 3 0 004.15.134l4.043-3.634a3 3 0 014.01.001l4.035 3.627a3 3 0 004.155-.138l3.669-3.769a3 3 0 014.258-.042l3.857 3.81a3 3 0 004.202.013l3.968-3.867a3 3 0 014.227.039l3.692 3.733a3 3 0 004.258.008l3.729-3.742a3 3 0 014.234-.016l3.851 3.808a3 3 0 004.225-.006l3.777-3.756a3 3 0 014.273.044l3.499 3.624a3 3 0 004.268.05l3.81-3.768a3 3 0 014.231.013l5.89 5.89M-57 42l6.113 5.94a3 3 0 004.211-.029l3.784-3.78a3 3 0 014.253.013l3.681 3.723a3.004 3.004 0 004.244.025l3.862-3.816a3 3 0 014.21-.007l3.937 3.863a3 3 0 004.209-.006l3.868-3.819a3.006 3.006 0 014.244.027l3.653 3.695a3 3 0 004.279-.012l3.541-3.623a3 3 0 014.29 0l3.67 3.75a3 3 0 004.15.134l4.043-3.634a3 3 0 014.01.001l4.035 3.627a3 3 0 004.155-.138l3.669-3.769a3 3 0 014.258-.042l3.857 3.81a3 3 0 004.202.013l3.968-3.867a3 3 0 014.227.039l3.692 3.733a3 3 0 004.258.008l3.729-3.742a3 3 0 014.234-.016l3.851 3.808a3 3 0 004.225-.006l3.777-3.756a3 3 0 014.273.044l3.499 3.624a3 3 0 004.268.05l3.81-3.768a3 3 0 014.231.013l5.89 5.89M-57 55l6.113 5.94a3 3 0 004.211-.029l3.784-3.78a3 3 0 014.253.013l3.681 3.723a3.004 3.004 0 004.244.025l3.862-3.816a3 3 0 014.21-.007l3.937 3.863a3 3 0 004.209-.006l3.868-3.819a3.006 3.006 0 014.244.027l3.653 3.695a3 3 0 004.279-.012l3.541-3.623a3 3 0 014.29 0l3.67 3.75a3 3 0 004.15.134l4.043-3.634a3 3 0 014.01.001l4.035 3.627a3 3 0 004.155-.138l3.669-3.769a3 3 0 014.258-.042l3.857 3.81a3 3 0 004.202.013l3.968-3.867a3 3 0 014.227.039l3.692 3.733a3 3 0 004.258.008l3.729-3.742a3 3 0 014.234-.016l3.851 3.808a3 3 0 004.225-.006l3.777-3.756a3 3 0 014.273.044l3.499 3.624a3 3 0 004.268.05l3.81-3.768a3 3 0 014.231.013l5.89 5.89M-57 68l6.113 5.94a3 3 0 004.211-.029l3.784-3.78a3 3 0 014.253.013l3.681 3.723a3.004 3.004 0 004.244.025l3.862-3.816a3 3 0 014.21-.007l3.937 3.863a3 3 0 004.209-.006l3.868-3.819a3.006 3.006 0 014.244.027l3.653 3.695a3 3 0 004.279-.012l3.541-3.623a3 3 0 014.29 0l3.67 3.75a3 3 0 004.15.134l4.043-3.634a3 3 0 014.01.001l4.035 3.627a3 3 0 004.155-.138l3.669-3.769a3 3 0 014.258-.042l3.857 3.81a3 3 0 004.202.013l3.968-3.867a3 3 0 014.227.039l3.692 3.733a3 3 0 004.258.008l3.729-3.742a3 3 0 014.234-.016l3.851 3.808a3 3 0 004.225-.006l3.777-3.756a3 3 0 014.273.044l3.499 3.624a3 3 0 004.268.05l3.81-3.768a3 3 0 014.231.013l5.89 5.89M-57 81l6.113 5.94a3 3 0 004.211-.029l3.784-3.78a3 3 0 014.253.013l3.681 3.723a3.004 3.004 0 004.244.025l3.862-3.816a3 3 0 014.21-.007l3.937 3.863a3 3 0 004.209-.006l3.868-3.819a3.006 3.006 0 014.244.027l3.653 3.695a3 3 0 004.279-.012l3.541-3.623a3 3 0 014.29 0l3.67 3.75a3 3 0 004.15.134l4.043-3.634a3 3 0 014.01.001l4.035 3.627a3 3 0 004.155-.138l3.669-3.769a3 3 0 014.258-.042l3.857 3.81a3 3 0 004.202.013l3.968-3.867a3 3 0 014.227.039l3.692 3.733a3 3 0 004.258.008l3.729-3.742a3 3 0 014.234-.016l3.851 3.808a3 3 0 004.225-.006l3.777-3.756a3 3 0 014.273.044l3.499 3.624a3 3 0 004.268.05l3.81-3.768a3 3 0 014.231.013l5.89 5.89M-57 94l6.113 5.94a3 3 0 004.211-.029l3.784-3.78a3 3 0 014.253.013l3.681 3.723a3.004 3.004 0 004.244.025l3.862-3.816a3 3 0 014.21-.007l3.937 3.863a3 3 0 004.209-.006l3.868-3.819a3.006 3.006 0 014.244.027l3.653 3.695a3 3 0 004.279-.012l3.541-3.623a3 3 0 014.29 0l3.67 3.75a3 3 0 004.15.134l4.043-3.634a3 3 0 014.01.001l4.035 3.627a3 3 0 004.155-.138l3.669-3.769a3 3 0 014.258-.042l3.857 3.81a3 3 0 004.202.013l3.968-3.867a3 3 0 014.227.039l3.692 3.733a3 3 0 004.258.008l3.729-3.742a3 3 0 014.234-.016l3.851 3.808a3 3 0 004.225-.006l3.777-3.756a3 3 0 014.273.044l3.499 3.624a3 3 0 004.268.05l3.81-3.768a3 3 0 014.231.013l5.89 5.89M-57 107l6.113 5.94a3 3 0 004.211-.029l3.784-3.78a3 3 0 014.253.013l3.681 3.723a3.004 3.004 0 004.244.025l3.862-3.816a3 3 0 014.21-.007l3.937 3.863a3 3 0 004.209-.006l3.868-3.819a3.006 3.006 0 014.244.027l3.653 3.695a3 3 0 004.279-.012l3.541-3.623a3 3 0 014.29 0l3.67 3.75a3 3 0 004.15.134l4.043-3.634a3 3 0 014.01.001l4.035 3.627a3 3 0 004.155-.138l3.669-3.769a3 3 0 014.258-.042l3.857 3.81a3 3 0 004.202.013l3.968-3.867a3 3 0 014.227.039l3.692 3.733a3 3 0 004.258.008l3.729-3.742a3 3 0 014.234-.016l3.851 3.808a3 3 0 004.225-.006l3.777-3.756a3 3 0 014.273.044l3.499 3.624a3 3 0 004.268.05l3.81-3.768a3 3 0 014.231.013l5.89 5.89M-57 120l6.113 5.94a3 3 0 004.211-.029l3.784-3.78a3 3 0 014.253.013l3.681 3.723a3.004 3.004 0 004.244.025l3.862-3.816a3 3 0 014.21-.007l3.937 3.863a3 3 0 004.209-.006l3.868-3.819a3.006 3.006 0 014.244.027l3.653 3.695a3 3 0 004.279-.012l3.541-3.623a3 3 0 014.29 0l3.67 3.75a3 3 0 004.15.134l4.043-3.634a3 3 0 014.01.001l4.035 3.627a3 3 0 004.155-.138l3.669-3.769a3 3 0 014.258-.042l3.857 3.81a3 3 0 004.202.013l3.968-3.867a3 3 0 014.227.039l3.692 3.733a3 3 0 004.258.008l3.729-3.742a3 3 0 014.234-.016l3.851 3.808a3 3 0 004.225-.006l3.777-3.756a3 3 0 014.273.044l3.499 3.624a3 3 0 004.268.05l3.81-3.768a3 3 0 014.231.013l5.89 5.89M-57 133l6.113 5.94a3 3 0 004.211-.029l3.784-3.78a3 3 0 014.253.013l3.681 3.723a3.004 3.004 0 004.244.025l3.862-3.816a3 3 0 014.21-.007l3.937 3.863a3 3 0 004.209-.006l3.868-3.819a3.006 3.006 0 014.244.027l3.653 3.695a3 3 0 004.279-.012l3.541-3.623a3 3 0 014.29 0l3.67 3.75a3 3 0 004.15.134l4.043-3.634a3 3 0 014.01.001l4.035 3.627a3 3 0 004.155-.138l3.669-3.769a3 3 0 014.258-.042l3.857 3.81a3 3 0 004.202.013l3.968-3.867a3 3 0 014.227.039l3.692 3.733a3 3 0 004.258.008l3.729-3.742a3 3 0 014.234-.016l3.851 3.808a3 3 0 004.225-.006l3.777-3.756a3 3 0 014.273.044l3.499 3.624a3 3 0 004.268.05l3.81-3.768a3 3 0 014.231.013l5.89 5.89M-57 146l6.113 5.94a3 3 0 004.211-.029l3.784-3.78a3 3 0 014.253.013l3.681 3.723a3.004 3.004 0 004.244.025l3.862-3.816a3 3 0 014.21-.007l3.937 3.863a3 3 0 004.209-.006l3.868-3.819a3.006 3.006 0 014.244.027l3.653 3.695a3 3 0 004.279-.012l3.541-3.623a3 3 0 014.29 0l3.67 3.75a3 3 0 004.15.134l4.043-3.634a3 3 0 014.01.001l4.035 3.627a3 3 0 004.155-.138l3.669-3.769a3 3 0 014.258-.042l3.857 3.81a3 3 0 004.202.013l3.968-3.867a3 3 0 014.227.039l3.692 3.733a3 3 0 004.258.008l3.729-3.742a3 3 0 014.234-.016l3.851 3.808a3 3 0 004.225-.006l3.777-3.756a3 3 0 014.273.044l3.499 3.624a3 3 0 004.268.05l3.81-3.768a3 3 0 014.231.013l5.89 5.89"/></g></svg>